<?xml version="1.0" encoding="UTF-8"?>
<svg xmlns="http://www.w3.org/2000/svg" xmlns:xlink="http://www.w3.org/1999/xlink" width="32pt" height="45pt" viewBox="0 0 32 45" version="1.1">
<g id="surface2">
<path style=" stroke:none;fill-rule:nonzero;fill:rgb(0%,0%,0%);fill-opacity:1;" d="M 16.011719 5.566406 C 7.230469 5.566406 0.109375 12.59375 0.109375 21.261719 C 0.109375 29.925781 7.230469 36.953125 16.011719 36.953125 C 24.792969 36.953125 31.910156 29.925781 31.910156 21.261719 C 31.910156 12.59375 24.792969 5.566406 16.011719 5.566406 Z M 16.011719 7.28125 C 24.003906 7.28125 30.480469 13.539062 30.480469 21.261719 C 30.480469 28.980469 24.003906 35.238281 16.011719 35.238281 C 8.019531 35.238281 1.539062 28.980469 1.539062 21.261719 C 1.539062 13.539062 8.019531 7.28125 16.011719 7.28125 Z M 16.011719 7.28125 "/>
<path style=" stroke:none;fill-rule:nonzero;fill:rgb(0%,0%,0%);fill-opacity:1;" d="M 15.234375 12.910156 C 12.21875 12.910156 9.546875 15.535156 9.546875 18.472656 L 9.546875 20.023438 L 8.847656 21.292969 L 8.847656 23.523438 C 8.847656 26.410156 11.730469 29.609375 15.175781 29.609375 L 16.847656 29.609375 C 20.292969 29.609375 23.171875 26.410156 23.171875 23.523438 L 23.171875 21.292969 L 22.445312 19.972656 L 22.445312 18.472656 C 22.445312 15.535156 19.777344 12.910156 16.761719 12.910156 Z M 15.546875 15.429688 L 16.445312 15.429688 C 18.222656 15.429688 19.792969 16.800781 19.792969 18.335938 L 19.792969 20.027344 L 12.199219 20.027344 L 12.199219 18.335938 C 12.199219 16.800781 13.773438 15.429688 15.546875 15.429688 Z M 15.988281 22.292969 C 17.011719 22.292969 17.839844 23.117188 17.839844 24.132812 C 17.839844 24.894531 17.371094 25.578125 16.65625 25.851562 L 16.65625 27.351562 C 16.65625 27.71875 16.359375 28.015625 15.988281 28.015625 C 15.621094 28.015625 15.320312 27.71875 15.320312 27.351562 L 15.320312 25.847656 C 14.609375 25.574219 14.136719 24.894531 14.136719 24.132812 C 14.136719 23.117188 14.964844 22.292969 15.988281 22.292969 Z M 15.988281 22.292969 "/>
</g>
</svg>
