<?xml version="1.0" encoding="UTF-8"?>
<svg xmlns="http://www.w3.org/2000/svg" xmlns:xlink="http://www.w3.org/1999/xlink" width="32pt" height="32pt" viewBox="0 0 32 32" version="1.1">
<g id="surface1">
<path style=" stroke:none;fill-rule:nonzero;fill:rgb(0%,0%,0%);fill-opacity:1;" d="M 25.332031 0 L 6.667969 0 C 2.984375 0 0 2.984375 0 6.667969 L 0 25.332031 C 0 29.015625 2.984375 32 6.667969 32 L 25.332031 32 C 29.015625 32 32 29.015625 32 25.332031 L 32 6.667969 C 32 2.984375 29.015625 0 25.332031 0 Z M 10.667969 25.332031 L 6.667969 25.332031 L 6.667969 10.667969 L 10.667969 10.667969 Z M 8.667969 8.976562 C 7.378906 8.976562 6.332031 7.921875 6.332031 6.625 C 6.332031 5.324219 7.378906 4.273438 8.667969 4.273438 C 9.953125 4.273438 11 5.324219 11 6.625 C 11 7.921875 9.957031 8.976562 8.667969 8.976562 Z M 26.667969 25.332031 L 22.667969 25.332031 L 22.667969 17.863281 C 22.667969 13.371094 17.332031 13.710938 17.332031 17.863281 L 17.332031 25.332031 L 13.332031 25.332031 L 13.332031 10.667969 L 17.332031 10.667969 L 17.332031 13.019531 C 19.195312 9.570312 26.667969 9.316406 26.667969 16.320312 Z M 26.667969 25.332031 "/>
</g>
</svg>
